<?xml version="1.0" encoding="UTF-8"?><svg id="_レイヤー_1" xmlns="http://www.w3.org/2000/svg" viewBox="0 0 578.166 598.537"><path d="M298.778.087c-23.708.94-45.774,19.264-64.53,31.299-10.752,6.899-24.427,6.899-35.18,0C180.314,19.351,158.248,1.027,134.539.087,61.432-2.812.878,67.223.002,140.186c-.013,1.068.038,2.137.133,3.201l45.339,340.761c3.934,25.157,34.284,35.818,53.08,18.641,30.901-28.239,70.993-64.884,95.617-87.382,12.586-11.499,31.982-11.08,44.062.949l89.593,89.206c18.187,18.108,49.222,8.453,53.918-16.778,14.565-78.256,51.472-345.572,51.472-345.572.074-.947.113-1.899.103-2.849C432.538,67.318,371.945-2.815,298.778.087Z" fill="#a3d9d9"/><path d="M408.778,514.396c-7.477,0-13.974-5.039-15.799-12.256l-40.121-175.465c-.101-.551-.171-1.078-.213-1.591-1.609-19.95,5.534-41.124,19.109-56.642,11.863-13.562,27.414-21.507,43.788-22.374.448-.024.896-.036,1.344-.036,9.597,0,19.267,5.344,27.799,10.058,2.005,1.108,3.899,2.155,5.76,3.119,2.496,1.292,5.291,1.976,8.084,1.976,3.885,0,7.72-1.324,10.797-3.728,1.652-1.291,3.323-2.668,5.091-4.127,7.889-6.509,16.83-13.887,26.798-15.212,2.499-.332,5.042-.5,7.559-.5,33.557,0,65.068,30.539,68.812,66.687.049.48.073.964.081,1.447-.062,1.382-6.354,141.594-10.118,182.613-.771,8.413-7.747,14.758-16.224,14.758h0c-3.751,0-7.299-1.294-10.26-3.741l-51.028-42.177c-3.079-2.546-6.974-3.947-10.965-3.947-4.843,0-9.487,2.053-12.743,5.634l-45.626,50.186c-3.118,3.429-7.353,5.317-11.924,5.317Z" fill="#a3d9d9"/><path d="M508.773,238.12c16.421,0,32.644,7.093,45.68,19.972,12.632,12.479,20.881,29.342,22.634,46.266.045.432.07.881.078,1.373-.122,2.731-6.371,141.78-10.115,182.591-.852,9.29-8.739,14.303-15.726,14.303-3.633,0-7.071-1.254-9.941-3.626l-51.028-42.177c-3.169-2.62-7.177-4.062-11.283-4.062-4.983,0-9.763,2.113-13.113,5.797-7.024,7.724-16.684,18.35-26.469,29.114l-19.157,21.072c-3.022,3.324-7.125,5.154-11.553,5.154-6.128,0-13.24-3.673-15.309-11.856l-40.115-175.434c-.102-.555-.171-1.066-.211-1.562-1.599-19.817,5.499-40.853,18.986-56.272,11.774-13.459,27.201-21.345,43.439-22.204.434-.023.878-.035,1.317-.035,9.467,0,19.077,5.311,27.555,9.995,2.009,1.11,3.906,2.158,5.774,3.126,2.566,1.329,5.44,2.032,8.312,2.032,3.996,0,7.94-1.361,11.105-3.833,1.658-1.295,3.331-2.675,5.102-4.136,7.837-6.466,16.72-13.795,26.546-15.102,2.476-.329,4.997-.496,7.493-.496M508.773,237.12c-2.523,0-5.066.165-7.625.505-12.316,1.637-22.934,12.259-32.131,19.441-3.068,2.396-6.765,3.622-10.49,3.622-2.677,0-5.369-.633-7.852-1.92-9.979-5.17-21.843-13.233-33.789-13.233-.457,0-.913.012-1.37.036-38.258,2.025-66.442,41.47-63.369,79.555.045.557.123,1.112.224,1.662l40.124,175.476c2.027,8.015,9.079,12.633,16.284,12.633,4.415,0,8.885-1.733,12.293-5.482,14.745-16.218,33.876-37.264,45.626-50.185,3.29-3.618,7.819-5.47,12.373-5.47,3.759,0,7.535,1.261,10.646,3.833l51.028,42.177c3.209,2.652,6.932,3.856,10.578,3.856,8.126,0,15.875-5.974,16.722-15.212,3.808-41.506,10.12-182.668,10.12-182.668-.007-.497-.033-.996-.084-1.491-3.675-35.486-34.358-67.135-69.309-67.135h0Z" fill="#fff"/><path d="M150.269,574.055c5.041,4.705,11.377,8.161,17.377,10.465.624.24.912.673.912,1.152,0,.72-.672,1.44-1.536,1.44-1.344,0-11.521-5.28-17.905-11.569l.096,12.193c0,.72-.624,1.056-1.248,1.056-.672,0-1.296-.336-1.296-1.056l.096-12.098c-6.816,7.153-16.801,12.098-17.905,12.098-.816,0-1.392-.624-1.392-1.248,0-.48.288-.912.912-1.152,6.336-2.496,12.337-6.337,17.089-11.281l-15.793.097c-.768,0-1.152-.576-1.152-1.2,0-.528.384-1.104,1.104-1.104l17.137.048-.048-4.224c0-.721.624-1.104,1.248-1.104s1.248.384,1.248,1.104v.048l-.096,4.176,17.377-.048c.72,0,1.056.576,1.056,1.152s-.336,1.152-1.056,1.152l-16.226-.097ZM139.228,554.23c-2.16,9.793-9.073,12.961-9.937,12.961-.768,0-1.392-.624-1.392-1.296,0-.433.288-.816.864-1.104,4.464-2.064,6.961-5.856,8.065-10.561-2.208,0-4.608.048-7.009.096h-.048c-.72,0-1.104-.528-1.104-1.056s.384-1.104,1.152-1.104c2.592-.048,4.993-.048,7.393-.048.192-1.296.288-2.641.288-4.032,0-.769.624-1.152,1.248-1.152.576,0,1.2.384,1.2,1.248,0,1.632-.24,3.408-.336,3.937,1.152,0,2.304.048,3.504.048,2.688.048,4.512,1.152,4.512,3.792,0,2.017-1.008,5.856-1.296,6.529-.864,2.208-2.544,3.696-5.376,3.696-1.008,0-2.16-.192-3.504-.624-.48-.145-.672-.576-.672-1.009,0-.72.48-1.439,1.2-1.439.144,0,.288,0,.48.096.96.384,1.776.624,2.544.624,1.344,0,2.352-.672,2.976-1.968.384-.721,1.2-3.648,1.2-5.377,0-1.392-.672-2.208-2.592-2.256h-3.36ZM159.294,565.943c-1.344,0-2.736-.048-3.984-.096-2.688-.097-4.032-1.681-4.128-3.601-.048-.912-.048-2.496-.048-4.129s0-3.312.048-4.416c.096-1.729,1.392-3.408,3.745-3.504,1.248-.049,2.592-.097,3.936-.097,1.296,0,2.64.048,3.745.097,2.592.096,4.08,1.536,4.128,3.216.048,1.344.096,3.553.096,5.521,0,5.761-.144,7.009-7.537,7.009ZM158.766,552.261c-3.792,0-5.137,0-5.233,2.353,0,.72-.048,2.16-.048,3.504,0,1.393.048,2.736.048,3.36.096,1.872,1.104,2.16,5.281,2.16,3.744,0,5.424-.048,5.521-2.16.048-.624.048-2.016.048-3.408,0-1.439,0-2.88-.048-3.504-.048-2.305-1.536-2.305-5.568-2.305Z" fill="#4a4a4a"/><path d="M177.867,586.105c-.72,0-1.104-.576-1.104-1.152s.384-1.152,1.104-1.152l16.897.048-.048-8.448-12.529.048c-.768,0-1.152-.576-1.152-1.152,0-.528.384-1.104,1.152-1.104h27.41c.768,0,1.104.576,1.104,1.104,0,.576-.336,1.152-1.104,1.152l-12.337-.048v8.448l16.705-.048c.72,0,1.104.576,1.104,1.2,0,.528-.384,1.104-1.104,1.104h-36.099ZM211.71,557.878c0-1.585-.864-2.257-3.312-2.305-3.504-.048-8.113-.096-12.625-.096-4.561,0-9.025.048-12.337.096-2.64.048-3.457.912-3.504,2.353,0,.672.048,2.4.048,3.264,0,.816-.672,1.248-1.392,1.248-1.296,0-1.344-.815-1.344-3.312,0-2.736,0-5.617,5.232-5.665,4.128-.048,8.161-.096,12.193-.096v-5.377c0-.863.672-1.248,1.392-1.248.672,0,1.344.385,1.344,1.248l-.048,5.377c3.937,0,7.873.048,11.905.096,3.36.048,5.088,1.536,5.136,3.937v3.408c-.048.864-.72,1.296-1.392,1.296s-1.296-.432-1.296-1.2v-3.023ZM180.22,570.023c-.816,0-1.296-.672-1.296-1.296,0-.528.336-1.008.96-1.152,4.128-.912,8.88-3.888,11.089-8.929.192-.432.576-.624,1.056-.624.624,0,1.296.433,1.296,1.2,0,.192-.048.432-.192.72-4.081,8.161-12.433,10.081-12.913,10.081ZM198.701,558.742c0-.72.624-1.056,1.2-1.056.624,0,1.2.336,1.2.96v.048c-.048,1.248-.048,4.417-.048,4.896.048,1.536.48,2.064,4.272,2.064,2.833,0,4.176-.24,4.32-2.256.048-.721.576-1.009,1.152-1.009.624,0,1.248.385,1.248,1.104-.096,3.601-2.88,4.225-7.153,4.225-3.216,0-6.192-.048-6.192-3.745v-5.232Z" fill="#4a4a4a"/><path d="M243.149,559.079c0,4.464-6.337,22.514-12.769,22.514-2.497,0-6.241-3.265-6.241-8.929,0-7.633,6.721-16.945,18.386-16.945,8.256,0,15.505,5.28,15.505,13.729,0,11.81-13.105,15.649-14.786,15.649-1.056,0-1.632-.672-1.632-1.344,0-.576.432-1.2,1.44-1.393,6.48-1.392,12.241-5.856,12.241-13.104,0-6.721-5.953-11.426-12.817-11.426.432.24.672.673.672,1.249ZM226.636,572.471c0,3.265,1.968,6.24,3.889,6.24,3.264,0,9.217-11.521,9.889-19.585.048-.576.192-.96.48-1.2-9.025.864-14.257,8.545-14.257,14.545Z" fill="#4a4a4a"/><path d="M267.435,559.558c-.72,0-1.104-.528-1.104-1.104,0-.528.384-1.057,1.104-1.057h7.104l-.048-7.104c0-.816.624-1.248,1.248-1.248.672,0,1.296.432,1.296,1.248v7.152h8.449v-9.696c0-.864.624-1.248,1.296-1.248.624,0,1.248.384,1.248,1.248v2.976h11.425c.72,0,1.056.528,1.056,1.057s-.336,1.056-1.056,1.056h-11.425l-.048,4.608,17.713-.048c.673,0,1.009.528,1.009,1.057,0,.575-.336,1.104-1.009,1.104h-38.259ZM300.223,563.35c0-.72.624-1.104,1.199-1.104.673,0,1.297.384,1.345,1.2.096,2.352.144,6.288.144,10.225,0,2.832-.048,5.664-.096,7.921-.096,3.601-2.256,5.424-5.904,5.568-3.025.096-6.817.144-10.562.144-4.176,0-8.305-.048-11.281-.144-3.552-.145-5.329-2.017-5.376-5.473-.048-1.584-.048-3.312-.048-5.088,0-4.369.096-9.121.144-13.298,0-.768.624-1.151,1.2-1.151.624,0,1.2.384,1.2,1.104v.048c-.048,3.744-.096,9.073-.096,13.489v4.272c.048,2.544,1.104,3.744,3.937,3.889,2.736.096,6.433.191,10.129.191s7.345-.096,9.937-.191c2.784-.097,4.177-1.345,4.225-3.744.048-1.921.096-4.272.096-6.769,0-3.841-.096-7.969-.191-11.041v-.049ZM287.549,571.175v.24l.096,10.465c0,.72-.576,1.104-1.152,1.104-.624,0-1.2-.384-1.2-1.104l.096-8.545c-4.128,4.944-8.449,7.921-9.409,7.921-.672,0-1.2-.528-1.2-1.104,0-.384.192-.72.672-1.008,3.36-1.872,6.625-4.608,9.409-7.969l-9.121.144c-.672,0-1.056-.527-1.056-1.056,0-.48.384-1.008,1.056-1.008h5.376c-.24-.048-.528-.24-.672-.624-.768-1.729-1.824-2.881-2.977-4.081-.144-.191-.24-.336-.24-.527,0-.528.624-.96,1.2-.96,1.008,0,4.08,3.983,4.08,4.896,0,.673-.528,1.249-1.104,1.297h3.984l-.096-6.385c0-.72.576-1.104,1.152-1.104.624,0,1.2.385,1.2,1.104l-.048,6.385h2.448c1.008-1.776,2.208-3.984,2.833-5.665.192-.432.528-.624.864-.624.672,0,1.392.576,1.392,1.2,0,.72-2.736,4.801-2.928,5.089h4.417c.72,0,1.056.527,1.056,1.056s-.336,1.008-1.008,1.008l-9.121-.144ZM294.75,579.672c-1.392-1.536-3.601-3.121-5.568-4.177-.288-.144-.384-.384-.384-.672,0-.48.336-1.008.912-1.008,1.008,0,4.993,2.544,6.529,3.888.336.288.527.672.527,1.057,0,.672-.576,1.296-1.2,1.296-.239,0-.528-.096-.816-.384Z" fill="#4a4a4a"/><path d="M322.876,567.958c-2.16,3.745-5.089,7.537-7.393,9.841-.336.337-.72.48-1.056.48-.769,0-1.44-.624-1.44-1.296,0-.288.144-.624.479-.912,2.881-2.448,6.913-7.393,9.361-12.289v-1.345l-7.297.049c-.768,0-1.152-.576-1.152-1.152,0-.528.385-1.104,1.152-1.104l7.249.048-.048-7.2c-3.937.864-5.857,1.104-6.337,1.104-.816,0-1.2-.576-1.2-1.152,0-.528.336-1.104,1.056-1.152,4.849-.479,9.17-1.536,13.538-3.36.144-.048.24-.096.384-.096.576,0,1.152.576,1.152,1.2,0,.72-.192,1.248-6.049,2.832,0,.576-.048,3.984-.096,7.824l6.24-.048c.769,0,1.152.576,1.152,1.104,0,.576-.384,1.152-1.152,1.152l-6.288-.049v4.849c0,7.201.144,20.258.144,20.258,0,.721-.672,1.104-1.296,1.104-.673,0-1.297-.384-1.297-1.104l.192-19.586ZM330.702,572.231c-1.345-1.632-3.889-3.504-4.944-4.128-.288-.192-.385-.432-.385-.672,0-.48.528-1.057,1.152-1.057.672,0,6.289,3.408,6.289,4.944,0,.721-.624,1.345-1.248,1.345-.288,0-.624-.097-.864-.433ZM346.111,574.871l-13.682,3.84c-.144.049-.239.049-.384.049-.72,0-1.152-.624-1.152-1.248,0-.433.288-.912.864-1.057l14.354-3.937v-24.05c0-.816.624-1.2,1.248-1.2s1.248.384,1.248,1.2l-.048,23.33,6.145-1.776c.144-.048.288-.048.384-.048.72,0,1.104.576,1.104,1.152,0,.479-.24.912-.864,1.104l-6.769,1.921.048,13.44c0,.721-.624,1.057-1.248,1.057s-1.248-.336-1.248-1.057v-12.721ZM339.582,568.535c-1.488-1.584-3.745-3.168-5.281-4.032-.384-.191-.527-.528-.527-.815,0-.528.527-1.104,1.296-1.104,1.776,0,6.192,3.84,6.288,3.937.336.336.48.72.48,1.056,0,.769-.624,1.393-1.296,1.393-.336,0-.672-.097-.96-.433ZM339.966,558.406c-1.345-1.824-3.648-3.648-4.753-4.464-.336-.24-.479-.48-.479-.769,0-.527.624-1.008,1.296-1.008,1.008,0,6.24,3.792,6.24,5.377,0,.768-.624,1.439-1.296,1.439-.384,0-.72-.191-1.008-.576Z" fill="#4a4a4a"/><path d="M400.735,584.232c.769,0,1.152.576,1.152,1.152s-.384,1.2-1.152,1.2c-4.224.145-9.744.192-15.169.192s-10.849-.048-14.93-.192c-4.032-.096-6.096-2.304-6.192-5.521-.096-3.552-.144-7.248-.144-11.041,0-4.8.048-9.696.144-14.545.048-3.12,2.257-5.329,5.953-5.377s8.16-.096,12.769-.096c5.617,0,11.474.048,16.321.096.721,0,1.104.576,1.104,1.152s-.384,1.152-1.152,1.152c-5.904,0-14.978-.096-22.034-.096-2.352,0-4.464,0-6.145.048-3.264.048-4.32,1.728-4.368,3.84-.096,4.177-.144,8.641-.144,12.961,0,3.889.048,7.729.144,11.186.097,2.784,1.633,3.84,4.896,3.937,3.12.096,7.44.144,12.001.144,5.856,0,12.146-.096,16.897-.192h.048ZM385.373,560.327c0,4.128-.239,5.809-.336,6.336l12.241-.048c.721,0,1.104.528,1.104,1.104,0,.527-.384,1.104-1.104,1.104-4.896,0-8.929-.096-11.568-.096,2.304,4.944,7.008,8.305,11.665,9.889.672.192.911.72.911,1.2,0,.672-.479,1.296-1.344,1.296-1.44,0-9.841-4.08-12.721-11.089-3.312,10.033-12.77,11.377-12.913,11.377-.769,0-1.248-.624-1.248-1.248,0-.432.288-.912,1.008-1.104,6.576-1.585,9.937-5.425,11.232-10.321-2.256,0-6.384.096-10.801.096-.72,0-1.104-.576-1.104-1.104,0-.576.384-1.104,1.104-1.104l11.233.048c.24-1.536.24-3.168.24-6.336h-6.193c-2.448,3.792-3.168,4.272-3.84,4.272s-1.296-.528-1.296-1.152c0-.24.096-.528.336-.769,2.208-2.352,3.937-4.944,5.185-8.017.191-.479.576-.672,1.008-.672.672,0,1.393.528,1.393,1.152,0,.24-.576,1.488-1.488,3.072h16.033c.768,0,1.104.527,1.104,1.056,0,.576-.336,1.104-1.104,1.104l-8.737-.048Z" fill="#4a4a4a"/><path d="M417.821,548.613c2.832,0,5.616.097,5.616,3.169,0,.72-.144,2.112-2.256,6.816-.433.912-.624,1.584-.624,2.208,0,.864.384,1.584,1.104,2.736,1.44,2.4,2.16,4.032,2.16,6.816,0,4.705-3.023,6.577-5.712,6.577-1.872,0-2.641-.576-2.641-1.44,0-.624.384-1.2.96-1.2.048,0,.145.048.24.048.432.145.864.192,1.248.192.288,0,3.505-.048,3.505-4.368,0-2.545-1.057-4.657-2.112-6.337-.721-1.104-1.009-1.968-1.009-2.929,0-.768.24-1.584.624-2.64,1.824-4.849,1.921-5.761,1.921-6.145,0-.769-.385-1.393-2.496-1.393-.721,0-1.585.049-2.112.049-1.44.048-2.017.815-2.017,2.16-.096,7.968-.048,23.138-.096,34.61,0,.864-.624,1.296-1.248,1.296-.672,0-1.345-.432-1.345-1.296,0-8.881.097-25.73.24-35.043.096-3.84,2.593-3.889,6.049-3.889ZM422.045,588.456c-.816,0-1.297-.624-1.297-1.248,0-.479.288-1.008.912-1.2,7.009-2.448,9.841-6.48,10.85-13.201.144-.768.672-1.056,1.2-1.056.672,0,1.344.479,1.344,1.152v.239c-1.296,7.057-4.177,12.241-12.337,15.17-.24.096-.48.144-.672.144ZM449.744,578.904c.672,0,1.344.432,1.344,1.2v.336c0,5.904-1.68,7.249-6.816,7.249-2.784,0-5.425-.721-5.425-4.369,0-1.775.048-10.656.145-13.249l-12.77.048c-.72,0-1.104-.527-1.104-1.104,0-.528.384-1.104,1.104-1.104h23.138c.673,0,1.009.576,1.009,1.104,0,.576-.336,1.104-1.009,1.104l-7.824-.048c0,2.593-.192,9.553-.192,12.146,0,2.304.145,3.072,3.169,3.072,3.216,0,4.032-.672,4.032-4.656v-.624c0-.721.576-1.104,1.2-1.104ZM447.823,557.878c0-1.872-1.056-2.545-2.976-2.545h-14.018c-2.304.049-2.928.816-2.977,2.496v3.169c0,.72-.624,1.056-1.248,1.056s-1.248-.336-1.248-1.056v-2.496c0-2.641.048-5.281,4.657-5.329,1.872-.048,4.08-.048,6.288-.048l-.048-4.944c0-.816.672-1.2,1.344-1.2s1.345.384,1.345,1.2l-.049,4.896c2.4,0,4.753.048,6.865.096,4.512.145,4.656,2.881,4.656,6.049,0,2.112-.048,2.736-1.344,2.736-.624,0-1.249-.384-1.249-1.057v-3.023ZM431.118,562.775c-.72,0-1.104-.576-1.104-1.104s.336-1.056,1.056-1.056h13.441c.672,0,1.008.527,1.008,1.056,0,.576-.336,1.104-1.008,1.104h-13.394Z" fill="#4a4a4a"/><path d="M168.081,179.177c0,.822-.308,1.494-.924,2.016-.616.523-1.316.784-2.1.784-.748,0-1.4-.336-1.96-1.008l-13.608-17.528-6.272,5.936v9.744c0,.784-.262,1.438-.784,1.96s-1.195.784-2.016.784-1.484-.261-1.988-.784c-.504-.522-.756-1.176-.756-1.96v-33.768c0-.746.261-1.38.784-1.904s1.194-.784,2.016-.784,1.484.252,1.988.756c.504.504.756,1.148.756,1.932v17.416l19.88-19.264c.709-.634,1.418-.952,2.128-.952.672,0,1.25.28,1.736.84.485.56.728,1.158.728,1.792,0,.56-.262,1.14-.784,1.736l-13.272,12.544,13.832,17.864c.411.523.616,1.139.616,1.848Z" fill="#ffb347"/><path d="M199.86,152.885c.504.504.756,1.167.756,1.988v24.304c0,.747-.252,1.382-.756,1.904-.504.523-1.148.784-1.932.784s-1.419-.252-1.904-.756c-.486-.504-.728-1.148-.728-1.932v-1.456c-.971,1.307-2.296,2.417-3.976,3.332s-3.491,1.372-5.432,1.372c-2.539,0-4.844-.653-6.916-1.96-2.072-1.307-3.696-3.126-4.872-5.46-1.176-2.333-1.764-4.956-1.764-7.868s.588-5.534,1.764-7.868c1.176-2.333,2.79-4.152,4.844-5.46,2.053-1.306,4.312-1.96,6.776-1.96,1.979,0,3.817.411,5.516,1.232,1.698.822,3.052,1.867,4.06,3.136v-1.344c0-.784.242-1.437.728-1.96.485-.522,1.12-.784,1.904-.784s1.428.252,1.932.756ZM191.18,176.153c1.362-.896,2.427-2.128,3.192-3.696.765-1.568,1.148-3.34,1.148-5.32,0-1.941-.383-3.696-1.148-5.264-.766-1.568-1.83-2.809-3.192-3.724-1.363-.915-2.921-1.372-4.676-1.372s-3.313.448-4.676,1.344-2.427,2.128-3.192,3.696c-.766,1.568-1.148,3.341-1.148,5.32s.382,3.752,1.148,5.32c.765,1.568,1.829,2.8,3.192,3.696s2.921,1.344,4.676,1.344,3.312-.448,4.676-1.344Z" fill="#ffb347"/><path d="M233.32,179.177c0,.747-.29,1.372-.868,1.876-.579.504-1.186.756-1.82.756-.822,0-1.476-.298-1.96-.896l-11.032-11.704-3.36,3.024v6.944c0,.747-.252,1.382-.756,1.904-.504.523-1.129.784-1.876.784-.784,0-1.428-.261-1.932-.784-.504-.522-.756-1.157-.756-1.904v-36.064c0-.747.252-1.381.756-1.904.504-.522,1.148-.784,1.932-.784.747,0,1.372.262,1.876.784.504.523.756,1.157.756,1.904v22.736l13.72-12.6c.634-.56,1.288-.84,1.96-.84.635,0,1.213.271,1.736.812.522.542.784,1.111.784,1.708,0,.747-.355,1.419-1.064,2.016l-9.688,8.624,10.752,11.648c.56.598.84,1.251.84,1.96Z" fill="#ffb347"/><path d="M263.084,153.305c.504.523.756,1.158.756,1.904v14.896c0,3.883-1.074,6.897-3.22,9.044-2.147,2.147-5.18,3.22-9.1,3.22-3.883,0-6.888-1.073-9.016-3.22-2.128-2.146-3.192-5.161-3.192-9.044v-14.896c0-.747.252-1.381.756-1.904.504-.522,1.129-.784,1.876-.784.784,0,1.428.262,1.932.784.504.523.756,1.158.756,1.904v14.896c0,4.891,2.296,7.336,6.888,7.336,2.277,0,4.013-.616,5.208-1.848,1.194-1.232,1.792-3.061,1.792-5.488v-14.896c0-.747.252-1.381.756-1.904.504-.522,1.129-.784,1.876-.784.784,0,1.428.262,1.932.784Z" fill="#ffb347"/><path d="M295.563,153.305c.504.523.756,1.158.756,1.904v14.896c0,3.883-1.073,6.897-3.219,9.044-2.147,2.147-5.18,3.22-9.1,3.22-3.883,0-6.888-1.073-9.016-3.22-2.128-2.146-3.192-5.161-3.192-9.044v-14.896c0-.747.252-1.381.756-1.904.504-.522,1.129-.784,1.876-.784.784,0,1.428.262,1.932.784.504.523.756,1.158.756,1.904v14.896c0,4.891,2.296,7.336,6.888,7.336,2.277,0,4.013-.616,5.208-1.848,1.194-1.232,1.792-3.061,1.792-5.488v-14.896c0-.747.252-1.381.756-1.904.504-.522,1.129-.784,1.876-.784.784,0,1.428.262,1.932.784Z" fill="#ffb347"/><path d="M167.342,205.721c2.143,1.505,3.76,3.528,4.848,6.072,1.087,2.544,1.632,5.369,1.632,8.472,0,3.136-.545,5.976-1.632,8.52-1.088,2.544-2.705,4.56-4.848,6.048-2.145,1.488-4.721,2.232-7.728,2.232h-11.808c-.641,0-1.185-.224-1.632-.672-.448-.448-.672-.992-.672-1.632v-28.992c0-.64.224-1.184.672-1.632.448-.448.992-.672,1.632-.672h11.808c3.007,0,5.583.752,7.728,2.256ZM166.477,229.169c1.632-2.32,2.448-5.288,2.448-8.904,0-3.583-.824-6.544-2.472-8.88-1.648-2.335-4.088-3.504-7.32-3.504h-8.88v24.768h8.88c3.264,0,5.712-1.16,7.344-3.48Z" fill="#fff"/><path d="M201.085,224.993c-.449.4-.977.6-1.584.6h-16.896c.224,2.336,1.111,4.208,2.664,5.616,1.552,1.409,3.448,2.112,5.688,2.112,1.536,0,2.784-.223,3.744-.672.96-.448,1.808-1.024,2.544-1.728.48-.288.943-.432,1.392-.432.544,0,1,.192,1.368.576.368.384.552.833.552,1.344,0,.672-.32,1.28-.96,1.824-.928.929-2.16,1.712-3.696,2.352s-3.104.96-4.704.96c-2.592,0-4.872-.544-6.84-1.632-1.968-1.087-3.488-2.608-4.56-4.56-1.072-1.952-1.608-4.16-1.608-6.624,0-2.688.552-5.047,1.656-7.08,1.104-2.032,2.56-3.592,4.368-4.68,1.808-1.087,3.751-1.632,5.832-1.632,2.047,0,3.967.528,5.76,1.584,1.792,1.056,3.232,2.513,4.32,4.368,1.087,1.856,1.647,3.936,1.68,6.24-.032.576-.272,1.064-.72,1.464ZM185.389,217.073c-1.312,1.008-2.176,2.568-2.592,4.68h14.16v-.384c-.161-1.696-.92-3.088-2.28-4.176-1.36-1.087-2.904-1.632-4.632-1.632-1.792,0-3.344.504-4.656,1.512Z" fill="#fff"/><path d="M228.54,221.705v13.056c0,.641-.216,1.185-.648,1.632-.432.448-.984.672-1.656.672-.641,0-1.176-.224-1.608-.672-.432-.448-.648-.992-.648-1.632v-13.008c0-1.888-.432-3.392-1.296-4.512-.864-1.12-2.272-1.68-4.224-1.68-1.28,0-2.441.28-3.48.84-1.041.561-1.856,1.312-2.448,2.256-.592.944-.888,1.977-.888,3.096v13.008c0,.641-.216,1.185-.648,1.632-.432.448-.984.672-1.656.672s-1.217-.216-1.632-.648c-.417-.432-.624-.984-.624-1.656v-20.544c0-.64.216-1.184.648-1.632.432-.448.967-.672,1.608-.672.672,0,1.224.224,1.656.672.432.448.648.992.648,1.632v1.68c.832-1.279,1.992-2.359,3.48-3.24,1.488-.879,3.079-1.32,4.776-1.32,5.76,0,8.64,3.456,8.64,10.368Z" fill="#fff"/><path d="M242.172,216.377v14.304c0,1.6.72,2.4,2.16,2.4.224,0,.528-.056.912-.168.384-.112.688-.168.912-.168.416,0,.768.176,1.056.528.288.353.432.8.432,1.344,0,.672-.384,1.248-1.152,1.728s-1.632.72-2.592.72c-1.056,0-2.024-.112-2.904-.336-.88-.224-1.664-.792-2.352-1.704-.688-.912-1.032-2.296-1.032-4.152v-14.496h-2.784c-.608,0-1.112-.2-1.512-.6-.401-.4-.6-.904-.6-1.512s.199-1.104.6-1.488c.399-.384.904-.576,1.512-.576h2.784v-4.032c0-.64.216-1.184.648-1.632.432-.448.984-.672,1.656-.672.64,0,1.176.225,1.608.672.432.448.648.992.648,1.632v4.032h3.984c.607,0,1.111.2,1.512.6.399.401.6.905.6,1.512s-.2,1.104-.6,1.488c-.401.384-.905.576-1.512.576h-3.984Z" fill="#fff"/><path d="M275.651,212.225c.432.432.648,1,.648,1.704v20.832c0,.641-.216,1.185-.648,1.632-.432.448-.984.672-1.656.672s-1.217-.216-1.632-.648c-.416-.432-.624-.984-.624-1.656v-1.248c-.832,1.12-1.968,2.072-3.408,2.856-1.44.784-2.993,1.176-4.656,1.176-2.176,0-4.152-.56-5.928-1.68-1.776-1.12-3.168-2.68-4.176-4.68-1.008-2-1.512-4.248-1.512-6.744s.504-4.744,1.512-6.744c1.008-2,2.392-3.56,4.152-4.68,1.759-1.12,3.696-1.68,5.808-1.68,1.695,0,3.271.353,4.728,1.056,1.456.704,2.616,1.601,3.48,2.688v-1.152c0-.672.208-1.231.624-1.68.416-.448.96-.672,1.632-.672s1.224.216,1.656.648ZM268.211,232.169c1.168-.768,2.08-1.824,2.736-3.168.656-1.344.984-2.864.984-4.56,0-1.664-.329-3.168-.984-4.512-.656-1.344-1.568-2.407-2.736-3.192-1.168-.784-2.504-1.176-4.008-1.176s-2.84.384-4.008,1.152c-1.168.768-2.08,1.824-2.736,3.168-.656,1.344-.984,2.864-.984,4.56s.328,3.216.984,4.56c.656,1.344,1.567,2.4,2.736,3.168,1.168.768,2.504,1.152,4.008,1.152s2.839-.384,4.008-1.152Z" fill="#fff"/><path d="M287.339,236.393c-.449.448-.992.672-1.632.672s-1.176-.224-1.608-.672c-.432-.448-.648-.992-.648-1.632v-30.912c0-.64.224-1.184.672-1.632.448-.448.992-.672,1.632-.672s1.176.224,1.608.672c.432.449.648.992.648,1.632v30.912c0,.641-.224,1.185-.672,1.632Z" fill="#fff"/><path d="M186.997,269.352c0,.576-.192,1.104-.576,1.584-.384.512-.912.768-1.584.768-.449,0-.881-.111-1.296-.336-1.984-1.119-4.128-1.68-6.432-1.68-2.4,0-4.521.528-6.36,1.584-1.84,1.056-3.272,2.536-4.296,4.44-1.024,1.904-1.536,4.088-1.536,6.552,0,2.656.528,4.943,1.584,6.864,1.056,1.92,2.512,3.384,4.368,4.392,1.855,1.008,3.936,1.512,6.24,1.512,2.368,0,4.512-.576,6.432-1.728.384-.192.8-.288,1.248-.288.704,0,1.264.272,1.68.815.384.48.576.992.576,1.536,0,.385-.104.744-.312,1.08-.208.336-.488.601-.84.792-1.248.704-2.648,1.265-4.2,1.681-1.553.415-3.081.624-4.584.624-3.104,0-5.96-.688-8.568-2.064-2.608-1.376-4.688-3.376-6.24-6-1.553-2.623-2.328-5.695-2.328-9.216,0-3.232.744-6.151,2.232-8.76,1.488-2.608,3.536-4.656,6.144-6.145,2.608-1.488,5.527-2.231,8.76-2.231,3.104,0,6.016.768,8.736,2.304.768.416,1.152,1.056,1.152,1.92Z" fill="#fff"/><path d="M196.213,298.392c-.449.448-.992.672-1.632.672s-1.176-.224-1.608-.672-.648-.991-.648-1.632v-30.912c0-.64.224-1.184.672-1.632.448-.448.992-.672,1.632-.672s1.176.224,1.608.672.648.992.648,1.632v30.912c0,.641-.224,1.184-.672,1.632Z" fill="#fff"/><path d="M204.109,269.999c-.4-.336-.6-.871-.6-1.607v-.769c0-.768.216-1.312.648-1.632.432-.319,1.096-.479,1.992-.479s1.543.168,1.944.504c.4.336.6.872.6,1.607v.769c0,.768-.208,1.312-.624,1.632-.417.32-1.073.48-1.968.48-.928,0-1.592-.168-1.992-.505ZM207.757,298.392c-.432.448-.984.672-1.656.672-.64,0-1.176-.224-1.608-.672s-.648-.991-.648-1.632v-20.784c0-.64.216-1.184.648-1.632s.968-.672,1.608-.672c.672,0,1.224.224,1.656.672s.648.992.648,1.632v20.784c0,.641-.216,1.184-.648,1.632Z" fill="#fff"/><path d="M236.436,283.704v13.057c0,.641-.216,1.184-.648,1.632-.432.448-.984.672-1.656.672-.641,0-1.176-.224-1.608-.672-.432-.448-.648-.991-.648-1.632v-13.008c0-1.889-.432-3.392-1.296-4.513-.864-1.119-2.272-1.68-4.224-1.68-1.28,0-2.441.28-3.48.84-1.041.561-1.856,1.312-2.448,2.256-.592.944-.888,1.977-.888,3.097v13.008c0,.641-.216,1.184-.648,1.632-.432.448-.984.672-1.656.672s-1.217-.216-1.632-.648c-.417-.432-.624-.983-.624-1.655v-20.544c0-.64.216-1.184.648-1.633.432-.447.967-.672,1.608-.672.672,0,1.224.225,1.656.672.432.449.648.993.648,1.633v1.68c.832-1.279,1.992-2.359,3.48-3.24,1.488-.88,3.079-1.319,4.776-1.319,5.76,0,8.64,3.455,8.64,10.367Z" fill="#fff"/><path d="M243.276,269.999c-.4-.336-.6-.871-.6-1.607v-.769c0-.768.216-1.312.648-1.632.432-.319,1.096-.479,1.992-.479s1.543.168,1.944.504c.4.336.6.872.6,1.607v.769c0,.768-.208,1.312-.624,1.632-.417.32-1.073.48-1.968.48-.928,0-1.592-.168-1.992-.505ZM246.924,298.392c-.432.448-.984.672-1.656.672-.64,0-1.176-.224-1.608-.672s-.648-.991-.648-1.632v-20.784c0-.64.216-1.184.648-1.632s.968-.672,1.608-.672c.672,0,1.224.224,1.656.672s.648.992.648,1.632v20.784c0,.641-.216,1.184-.648,1.632Z" fill="#fff"/><path d="M271.403,274.536c1.68.801,2.52,1.824,2.52,3.072,0,.545-.176,1.032-.528,1.464-.352.433-.8.648-1.344.648-.417,0-.744-.064-.984-.192-.24-.127-.569-.336-.984-.624-.192-.191-.497-.415-.912-.672-.384-.192-.929-.352-1.632-.479-.704-.128-1.344-.192-1.92-.192-1.664,0-3.136.384-4.416,1.152-1.28.768-2.272,1.832-2.976,3.191-.704,1.36-1.056,2.873-1.056,4.536,0,1.696.343,3.216,1.032,4.56.688,1.345,1.656,2.4,2.904,3.168,1.248.769,2.671,1.152,4.272,1.152,1.664,0,3.007-.256,4.032-.768.224-.128.528-.336.912-.624.319-.256.6-.448.84-.576.24-.128.536-.192.888-.192.64,0,1.144.2,1.512.601.367.4.552.92.552,1.56,0,.672-.424,1.337-1.272,1.992-.848.656-1.984,1.192-3.408,1.608-1.424.415-2.952.624-4.584.624-2.432,0-4.576-.568-6.432-1.704-1.856-1.136-3.288-2.704-4.296-4.704-1.008-2-1.512-4.231-1.512-6.696s.528-4.695,1.584-6.696c1.056-1.999,2.527-3.567,4.416-4.704,1.888-1.135,4.048-1.703,6.48-1.703,2.527,0,4.632.4,6.312,1.199Z" fill="#fff"/></svg>